<?xml version="1.0" encoding="UTF-8" standalone="no"?>
<!-- Created with Inkscape (http://www.inkscape.org/) -->
<svg
   xmlns:dc="http://purl.org/dc/elements/1.1/"
   xmlns:cc="http://creativecommons.org/ns#"
   xmlns:rdf="http://www.w3.org/1999/02/22-rdf-syntax-ns#"
   xmlns:svg="http://www.w3.org/2000/svg"
   xmlns="http://www.w3.org/2000/svg"
   xmlns:sodipodi="http://sodipodi.sourceforge.net/DTD/sodipodi-0.dtd"
   xmlns:inkscape="http://www.inkscape.org/namespaces/inkscape"
   width="461.92877"
   height="387.30096"
   id="svg7723"
   sodipodi:version="0.32"
   inkscape:version="0.46"
   sodipodi:docname="chibi fist.svg"
   inkscape:output_extension="org.inkscape.output.svg.inkscape"
   version="1.0"
   inkscape:export-filename="C:\Documents and Settings\WILS\Desktop\chibi samples\chibi fist.png"
   inkscape:export-xdpi="90"
   inkscape:export-ydpi="90">
  <defs
     id="defs7725">
    <filter
       inkscape:collect="always"
       id="filter4787"
       x="-0.68321419"
       width="2.3664284"
       y="-0.5968408"
       height="2.1936817">
      <feGaussianBlur
         inkscape:collect="always"
         stdDeviation="2.8101254"
         id="feGaussianBlur4789" />
    </filter>
    <filter
       inkscape:collect="always"
       id="filter4479"
       x="-0.5184797"
       width="2.0369594"
       y="-0.45114475"
       height="1.9022895">
      <feGaussianBlur
         inkscape:collect="always"
         stdDeviation="2.0677468"
         id="feGaussianBlur4481" />
    </filter>
    <filter
       inkscape:collect="always"
       id="filter4235"
       x="-0.54506844"
       width="2.090137"
       y="-0.47428039"
       height="1.9485608">
      <feGaussianBlur
         inkscape:collect="always"
         stdDeviation="2.1737851"
         id="feGaussianBlur4237" />
    </filter>
    <filter
       inkscape:collect="always"
       id="filter4619"
       x="-0.61637962"
       width="2.2327592"
       y="-0.039491247"
       height="1.0789825">
      <feGaussianBlur
         inkscape:collect="always"
         stdDeviation="2.1085505"
         id="feGaussianBlur4621" />
    </filter>
    <filter
       inkscape:collect="always"
       id="filter4739"
       x="-0.62518293"
       width="2.250366"
       y="-0.032537464"
       height="1.0650749">
      <feGaussianBlur
         inkscape:collect="always"
         stdDeviation="1.931794"
         id="feGaussianBlur4741" />
    </filter>
    <filter
       inkscape:collect="always"
       id="filter4067"
       x="-0.34013155"
       width="1.680263"
       y="-0.04165902"
       height="1.083318">
      <feGaussianBlur
         inkscape:collect="always"
         stdDeviation="2.5714526"
         id="feGaussianBlur4069" />
    </filter>
    <inkscape:perspective
       sodipodi:type="inkscape:persp3d"
       inkscape:vp_x="0 : 526.18109 : 1"
       inkscape:vp_y="0 : 1000 : 0"
       inkscape:vp_z="744.09448 : 526.18109 : 1"
       inkscape:persp3d-origin="372.04724 : 350.78739 : 1"
       id="perspective7731" />
  </defs>
  <sodipodi:namedview
     id="base"
     pagecolor="#ffffff"
     bordercolor="#666666"
     borderopacity="1.0"
     gridtolerance="10000"
     guidetolerance="10"
     objecttolerance="10"
     inkscape:pageopacity="0.0"
     inkscape:pageshadow="2"
     inkscape:zoom="0.35"
     inkscape:cx="375"
     inkscape:cy="520"
     inkscape:document-units="px"
     inkscape:current-layer="layer1"
     showgrid="false"
     inkscape:window-width="640"
     inkscape:window-height="667"
     inkscape:window-x="44"
     inkscape:window-y="58" />
  <metadata
     id="metadata7728">
    <rdf:RDF>
      <cc:Work
         rdf:about="">
        <dc:format>image/svg+xml</dc:format>
        <dc:type
           rdf:resource="http://purl.org/dc/dcmitype/StillImage" />
      </cc:Work>
    </rdf:RDF>
  </metadata>
  <g
     inkscape:label="Layer 1"
     inkscape:groupmode="layer"
     id="layer1"
     transform="translate(-138.32371,-340.64778)">
    <g
       id="g6243"
       transform="matrix(10.912123,-2.7824128,2.254185,10.122115,-3013.6152,-2438.8353)">
      <g
         id="g6245"
         transform="translate(-44.428572,-35)">
        <path
           sodipodi:nodetypes="csssc"
           id="path6247"
           d="M 297.20964,394.8086 C 294.02024,407.95074 288.99628,412.37807 278.22874,407.9689 C 267.51887,403.58334 259.23974,397.1217 262.75146,384.88316 C 266.26723,372.63051 274.96674,373.4937 283.64243,375.88498 C 294.73781,378.9432 300.21719,382.41586 297.20964,394.8086 z"
           style="fill:#ffb380;fill-opacity:1;fill-rule:nonzero;stroke:#000000;stroke-width:1;stroke-linecap:round;stroke-linejoin:round;stroke-miterlimit:4;stroke-dasharray:none;stroke-opacity:1" />
        <path
           sodipodi:nodetypes="ccscsc"
           id="path6249"
           d="M 276.69989,411.08019 C 275.01198,411.19385 273.00206,408.35006 268.16312,405.89735 C 257.88214,403.31065 258.73102,395.29858 261.12633,387.90789 C 263.59565,380.28887 266.96259,373.21761 273.10359,375.11567 C 275.3014,376.32444 270.20671,391.19513 274.08283,395.98054 C 278.34882,401.24729 279.38021,408.09053 276.69989,411.08019 z"
           style="fill:#ffb380;fill-opacity:1;fill-rule:nonzero;stroke:#000000;stroke-width:1;stroke-linecap:round;stroke-linejoin:round;stroke-miterlimit:4;stroke-dasharray:none;stroke-opacity:1" />
      </g>
      <g
         id="g6251"
         transform="matrix(0.3069912,-0.3434943,0.3577076,0.3180087,39.707042,360.39238)"
         style="fill:#ffb380;fill-opacity:1;stroke:#000000;stroke-width:2.12960601;stroke-miterlimit:4;stroke-dasharray:none;stroke-opacity:1">
        <path
           sodipodi:nodetypes="ccccccssc"
           id="path6253"
           d="M 307.51388,271.84909 C 315.40143,278.79715 317.42824,285.57054 317.49175,292.14234 C 322.51916,296.07092 326.24141,302.20589 326.08739,311.01335 C 339.86435,327.25769 285.96297,358.59712 280.16761,337.93293 C 271.21803,335.73828 268.91302,326.37817 268.93173,319.57175 C 261.75254,317.92545 256.17676,310.20758 257.81282,300.71565 C 249.42942,295.67372 246.36412,285.34365 257.30603,274.94266 C 261.813,270.65851 276.99784,261.76151 280.81385,260.39006 C 299.55756,253.65368 307.94223,263.74338 307.51388,271.84909 z"
           style="fill:#ffb380;fill-opacity:1;fill-rule:nonzero;stroke:#000000;stroke-width:2.12960601;stroke-linecap:round;stroke-linejoin:round;stroke-miterlimit:4;stroke-dasharray:none;stroke-opacity:1" />
        <path
           transform="matrix(0.1273443,0.2484687,-0.2649916,0.1362665,368.85689,162.39416)"
           sodipodi:nodetypes="csc"
           id="path6255"
           d="M 241.42858,395.21933 C 241.28511,398.19996 251.08439,407.38641 249.6954,419.46702 C 246.88099,443.94509 245.05316,486.17055 258.57143,542.36219"
           style="fill:#ffb380;fill-opacity:1;fill-rule:evenodd;stroke:#000000;stroke-width:7.38330746;stroke-linecap:butt;stroke-linejoin:miter;stroke-miterlimit:4;stroke-dasharray:none;stroke-opacity:1;filter:url(#filter4067)" />
        <path
           transform="matrix(0.1273443,0.2484687,-0.2649916,0.1362665,368.85689,162.39416)"
           sodipodi:nodetypes="csc"
           id="path6257"
           d="M 338.57142,400.93361 C 338.81971,399.84472 331.92377,413.21047 332.16841,419.55997 C 335.54987,507.32682 338.49448,522.38554 338.57143,542.36219"
           style="fill:#ffb380;fill-opacity:1;fill-rule:evenodd;stroke:#000000;stroke-width:7.38330746;stroke-linecap:butt;stroke-linejoin:miter;stroke-miterlimit:4;stroke-dasharray:none;stroke-opacity:1;filter:url(#filter4739)" />
        <path
           transform="matrix(0.1273443,0.2484687,-0.2649916,0.1362665,368.85689,162.39416)"
           sodipodi:nodetypes="cc"
           id="path6259"
           d="M 414.28571,405.21933 C 426.67435,434.74314 419.93782,502.83838 417.14286,532.36219"
           style="fill:#ffb380;fill-opacity:1;fill-rule:evenodd;stroke:#000000;stroke-width:7.38330746;stroke-linecap:butt;stroke-linejoin:miter;stroke-miterlimit:4;stroke-dasharray:none;stroke-opacity:1;filter:url(#filter4619)" />
        <path
           transform="matrix(0.1273443,0.2484687,-0.2649916,0.1362665,368.85689,162.39416)"
           id="path6261"
           d="M 247.14286,409.50504 L 255.71429,399.50504"
           style="fill:#ffb380;fill-opacity:1;fill-rule:evenodd;stroke:#000000;stroke-width:7.38330746;stroke-linecap:butt;stroke-linejoin:miter;stroke-miterlimit:4;stroke-dasharray:none;stroke-opacity:1;filter:url(#filter4235)" />
        <path
           transform="matrix(0.1273443,0.2484687,-0.2649916,0.1362665,368.85689,162.39416)"
           style="fill:#ffb380;fill-opacity:1;fill-rule:evenodd;stroke:#000000;stroke-width:7.38330746;stroke-linecap:butt;stroke-linejoin:miter;stroke-miterlimit:4;stroke-dasharray:none;stroke-opacity:1;filter:url(#filter4479)"
           d="M 418,415.21933 L 426.57143,405.21933"
           id="path6263" />
        <path
           transform="matrix(0.1273443,0.2484687,-0.2649916,0.1362665,368.85689,162.39416)"
           id="path6265"
           d="M 333.71429,415.21933 L 325.14286,405.21933"
           style="fill:#ffb380;fill-opacity:1;fill-rule:evenodd;stroke:#000000;stroke-width:7.38330746;stroke-linecap:butt;stroke-linejoin:miter;stroke-miterlimit:4;stroke-dasharray:none;stroke-opacity:1;filter:url(#filter4787)" />
      </g>
    </g>
  </g>
</svg>
